<?xml version="1.0" encoding="UTF-8"?>
<svg width="457px" height="113px" viewBox="0 0 457 113" version="1.1" xmlns="http://www.w3.org/2000/svg" xmlns:xlink="http://www.w3.org/1999/xlink">
    <!-- Generator: Sketch 53.2 (72643) - https://sketchapp.com -->
    <title>PayHere-logo</title>
    <desc>Created with Sketch.</desc>
    <g id="Page-1" stroke="none" stroke-width="1" fill="none" fill-rule="evenodd">
        <path d="M17.5670834,67.2578709 L29.1647696,67.2578709 C40.5919014,67.2578709 47.7551783,65.055472 53.0423586,59.9730135 C59.1823102,54.2128936 62.0817317,45.7421287 62.0817317,33.5442278 C62.0817317,21.5157421 59.1823102,13.0449775 53.0423586,7.28485755 C47.7551783,2.2023988 40.5919014,0 29.1647696,0 L0,0 L0,113 L17.5670834,113 L17.5670834,67.2578709 Z M17.5670834,51.1634183 L17.5670834,16.0944528 L25.2420228,16.0944528 C39.3980219,16.0944528 43.8324315,20.3298351 43.8324315,33.5442278 C43.8324315,46.9280358 39.3980219,51.1634183 25.2420228,51.1634183 L17.5670834,51.1634183 Z M158.785968,68.9520238 L185.051316,0 L165.949245,0 L150.258258,47.7751123 L135.078933,0 L115.635753,0 L141.218884,68.9520238 L141.218884,113 L158.785968,113 L158.785968,68.9520238 Z M252.931891,63.1919038 L252.931891,113 L270.498975,113 L270.498975,0 L252.931891,0 L252.931891,47.0974512 L227.860423,47.0974512 L227.860423,0 L210.293339,0 L210.293339,113 L227.860423,113 L227.860423,63.1919038 L252.931891,63.1919038 Z M330.960441,0 L279.453071,0 L279.453071,113 L330.960441,113 L330.960441,96.905547 L297.020154,96.905547 L297.020154,62.0059971 L322.091623,62.0059971 L322.091623,45.9115441 L297.020154,45.9115441 L297.020154,16.0944528 L330.960441,16.0944528 L330.960441,0 Z M355.776079,66.5802099 L366.350439,66.5802099 L381.359208,113 L399.779063,113 L383.064751,61.6671664 C393.298003,56.4152921 398.414632,46.5892055 398.414632,32.3583208 C398.414632,21.1769115 395.003546,12.5367316 388.181379,6.7766117 C382.723643,2.03298351 376.072028,0 365.668223,0 L338.208995,0 L338.208995,113 L355.776079,113 L355.776079,66.5802099 Z M355.776079,50.4857572 L355.776079,16.0944528 L362.257138,16.0944528 C369.761524,16.0944528 373.17261,16.9415292 375.901476,19.6521739 C378.800898,22.5322339 380.165329,27.1064467 380.165329,33.2053973 C380.165329,39.4737631 378.800898,44.0479759 375.901476,46.9280358 C373.17261,49.6386804 369.761524,50.4857572 362.257138,50.4857572 L355.776079,50.4857572 Z M81.0203791,64.377811 L76.7493936,64.377811 L89.1145736,80.4722636 L101.479754,64.377811 L96.6885494,64.377811 L88.7825921,21.6851574 L81.0203791,64.377811 Z M457,0 L457,16.0944528 L423.059712,16.0944528 L423.059712,45.9115441 L448.131182,45.9115441 L448.131182,62.0059971 L423.059712,62.0059971 L423.059712,96.905547 L457,96.905547 L457,113 L405.492629,113 L405.492629,0 L457,0 Z M101.479754,88.4347825 L77.2610561,88.4347825 L72.6560926,113 L55.4301176,113 L77.2610561,0 L101.309199,0 L124.334018,113 L106.255271,113 L101.479754,88.4347825 Z" id="PayHere-logo" fill="#004DC9" fill-rule="nonzero"></path>
    </g>
</svg>