<?xml version="1.0" encoding="UTF-8"?>
<svg width="457px" height="254px" viewBox="0 0 457 254" version="1.1" xmlns="http://www.w3.org/2000/svg" xmlns:xlink="http://www.w3.org/1999/xlink">
    <!-- Generator: Sketch 53.2 (72643) - https://sketchapp.com -->
    <title>PayHere-logo</title>
    <desc>Created with Sketch.</desc>
    <g id="Page-1" stroke="none" stroke-width="1" fill="none" fill-rule="evenodd">
        <path d="M17.5670834,137.757871 L29.1647696,137.757871 C40.5919014,137.757871 47.7551783,135.555472 53.0423586,130.473014 C59.1823102,124.712894 62.0817317,116.242129 62.0817317,104.044228 C62.0817317,92.0157421 59.1823102,83.5449775 53.0423586,77.7848576 C47.7551783,72.7023988 40.5919014,70.5 29.1647696,70.5 L0,70.5 L0,183.5 L17.5670834,183.5 L17.5670834,137.757871 Z M17.5670834,121.663418 L17.5670834,86.5944528 L25.2420228,86.5944528 C39.3980219,86.5944528 43.8324315,90.8298351 43.8324315,104.044228 C43.8324315,117.428036 39.3980219,121.663418 25.2420228,121.663418 L17.5670834,121.663418 Z M158.785968,139.452024 L185.051316,70.5 L165.949245,70.5 L150.258258,118.275112 L135.078933,70.5 L115.635753,70.5 L141.218884,139.452024 L141.218884,183.5 L158.785968,183.5 L158.785968,139.452024 Z M252.931891,133.691904 L252.931891,183.5 L270.498975,183.5 L270.498975,70.5 L252.931891,70.5 L252.931891,117.597451 L227.860423,117.597451 L227.860423,70.5 L210.293339,70.5 L210.293339,183.5 L227.860423,183.5 L227.860423,133.691904 L252.931891,133.691904 Z M330.960441,70.5 L279.453071,70.5 L279.453071,183.5 L330.960441,183.5 L330.960441,167.405547 L297.020154,167.405547 L297.020154,132.505997 L322.091623,132.505997 L322.091623,116.411544 L297.020154,116.411544 L297.020154,86.5944528 L330.960441,86.5944528 L330.960441,70.5 Z M355.776079,137.08021 L366.350439,137.08021 L381.359208,183.5 L399.779063,183.5 L383.064751,132.167166 C393.298003,126.915292 398.414632,117.089205 398.414632,102.858321 C398.414632,91.6769115 395.003546,83.0367316 388.181379,77.2766117 C382.723643,72.5329835 376.072028,70.5 365.668223,70.5 L338.208995,70.5 L338.208995,183.5 L355.776079,183.5 L355.776079,137.08021 Z M355.776079,120.985757 L355.776079,86.5944528 L362.257138,86.5944528 C369.761524,86.5944528 373.17261,87.4415292 375.901476,90.1521739 C378.800898,93.0322339 380.165329,97.6064467 380.165329,103.705397 C380.165329,109.973763 378.800898,114.547976 375.901476,117.428036 C373.17261,120.13868 369.761524,120.985757 362.257138,120.985757 L355.776079,120.985757 Z M81.0203791,134.877811 L76.7493936,134.877811 L89.1145736,150.972264 L101.479754,134.877811 L96.6885494,134.877811 L88.7825921,92.1851574 L81.0203791,134.877811 Z M457,70.5 L457,86.5944528 L423.059712,86.5944528 L423.059712,116.411544 L448.131182,116.411544 L448.131182,132.505997 L423.059712,132.505997 L423.059712,167.405547 L457,167.405547 L457,183.5 L405.492629,183.5 L405.492629,70.5 L457,70.5 Z M101.479754,158.934782 L77.2610561,158.934782 L72.6560926,183.5 L55.4301176,183.5 L77.2610561,70.5 L101.309199,70.5 L124.334018,183.5 L106.255271,183.5 L101.479754,158.934782 Z" id="PayHere-logo" fill="#FFFFFF" fill-rule="nonzero"></path>
    </g>
</svg>