<?xml version="1.0" encoding="UTF-8"?>
<svg width="212px" height="56px" viewBox="0 0 212 56" version="1.1" xmlns="http://www.w3.org/2000/svg" xmlns:xlink="http://www.w3.org/1999/xlink">
    <!-- Generator: Sketch 53.2 (72643) - https://sketchapp.com -->
    <title>payhere_logo</title>
    <desc>Created with Sketch.</desc>
    <g id="Website" stroke="none" stroke-width="1" fill="none" fill-rule="evenodd">
        <g id="payhere_logo" fill="#004DC9">
            <path d="M1.997625,0.02625 L16.340625,0.02625 C16.865625,0.02625 17.313625,0.326375 17.514875,0.811125 C17.71525,1.295875 17.61025,1.824375 17.23925,2.195375 L2.89625,16.538375 C2.52525,16.909375 1.99675,17.014375 1.511125,16.814 C1.026375,16.61275 0.727125,16.16475 0.727125,15.63975 L0.727125,1.29675 C0.727125,0.597625 1.297625,0.02625 1.997625,0.02625 Z M24.602375,0.025375 C27.433,0.020125 29.83225,-0.007875 32.68825,0.805875 C41.293875,3.2585 47.642875,11.213125 47.642875,20.57825 C47.642875,31.882375 38.394125,41.13025 27.090875,41.13025 L12.33575,41.13025 L21.279125,44.0615 L21.279125,54.705 C21.279125,55.405 20.70775,55.9755 20.008625,55.9755 L1.997625,55.9755 C1.297625,55.9755 0.727125,55.405 0.727125,54.705 L0.727125,23.904125 C0.727125,23.554125 0.85225,23.253125 1.099,23.0055 L23.70725,0.398125 C23.953125,0.151375 24.25325,0.02625 24.602375,0.025375 L24.602375,0.025375 Z" id="Fill-1"></path>
            <path d="M65.949625,46.286625 C65.949625,46.676875 66.1675,46.89825 66.56125,46.89825 L69.35775,46.89825 C69.7515,46.89825 69.969375,46.680375 69.969375,46.286625 L69.969375,35.952875 C71.105125,37.438625 73.5525,38.094 75.03825,38.094 C80.150875,38.094 84.12775,34.90375 84.12775,28.830375 C84.12775,23.193625 80.150875,19.56675 75.03825,19.56675 C69.925625,19.56675 65.949625,22.757875 65.949625,28.830375 L65.949625,46.286625 Z M69.969375,28.830375 C69.969375,24.460625 72.809625,23.4115 75.03825,23.4115 C77.266875,23.4115 80.107125,24.460625 80.107125,28.830375 C80.107125,33.200125 77.266875,34.248375 75.03825,34.248375 C72.809625,34.248375 69.969375,33.200125 69.969375,28.830375 Z M106.41225,29.0045 C106.41225,22.712375 102.43625,19.56675 97.323625,19.56675 C92.16725,19.56675 88.06,23.062375 88.06,28.961625 C88.06,33.6805 91.0315,38.05025 96.4495,38.05025 C98.154,38.05025 100.90675,37.52525 102.3925,35.21 L102.3925,36.957375 C102.3925,37.351125 102.61125,37.569875 103.004125,37.569875 L105.8015,37.569875 C106.194375,37.569875 106.41225,37.351125 106.41225,36.957375 L106.41225,29.0045 Z M102.3925,28.961625 C102.3925,33.287625 98.9835,34.510875 96.7995,34.379625 C94.570875,34.248375 92.1235,32.850125 92.1235,28.830375 C92.1235,24.723125 95.095,23.4115 97.323625,23.4115 C99.55225,23.4115 102.3925,24.460625 102.3925,28.961625 Z M117.751375,46.81775 C118.103125,46.94025 118.398875,46.879 118.580875,46.46775 L130.00925,20.65875 C130.144,20.35425 129.964625,20.090875 129.65925,20.090875 L126.513625,20.090875 C126.119875,20.090875 125.813625,20.265875 125.6395,20.65875 L120.308125,32.937625 L115.0205,20.65875 C114.890125,20.265875 114.583875,20.090875 114.190125,20.090875 L110.957,20.090875 C110.65075,20.090875 110.476625,20.3525 110.607875,20.65875 L118.12325,37.569875 L114.82275,45.11325 C114.657375,45.492125 114.77725,45.7765 115.129,45.899875 L117.751375,46.81775 Z M143.380125,23.4115 C145.39,23.4115 147.749875,24.110625 147.749875,28.305375 L147.749875,36.957375 C147.749875,37.351125 147.96775,37.569875 148.3615,37.569875 L151.158,37.569875 C151.550875,37.569875 151.769625,37.351125 151.769625,36.957375 L151.769625,28.305375 C151.769625,22.36325 148.23025,19.56675 143.380125,19.56675 C141.3265,19.56675 139.75325,20.309625 138.660375,21.489125 L138.660375,9.48325 C138.660375,9.090375 138.441625,8.871625 138.04875,8.871625 L135.25225,8.871625 C134.86025,8.871625 134.640625,9.09125 134.640625,9.48325 L134.640625,36.957375 C134.640625,37.35025 134.859375,37.569875 135.25225,37.569875 L138.04875,37.569875 C138.4425,37.569875 138.660375,37.351125 138.660375,36.957375 L138.660375,28 C138.791625,24.285625 141.414,23.4115 143.380125,23.4115 Z M174.53625,28.830375 C174.53625,22.756125 170.559375,19.56675 165.44675,19.56675 C160.334125,19.56675 156.358125,22.756125 156.358125,28.830375 C156.358125,34.90375 160.334125,38.094 165.44675,38.094 C168.59325,38.094 171.171,36.957375 172.788,34.729625 C173.00675,34.423375 172.8755,34.073375 172.56925,33.943 L169.9915,32.806375 C169.6415,32.631375 169.292375,32.762625 168.986125,32.981375 C167.981625,33.985875 166.62625,34.248375 165.44675,34.248375 C163.349375,34.248375 160.727875,33.331375 160.377875,29.57325 L173.88,29.57325 C174.23,29.57325 174.53625,29.31075 174.53625,28.961625 L174.53625,28.830375 Z M160.684125,26.6455 C161.47075,24.110625 163.65475,23.4115 165.44675,23.4115 C167.23875,23.4115 169.42275,24.110625 170.21025,26.6455 L160.684125,26.6455 Z M190.309875,20.8775 C190.441125,20.5275 190.1795,20.222125 189.8295,20.090875 C188.7375,19.784625 187.644625,19.65425 186.5955,19.65425 C182.57575,19.65425 179.342625,21.620375 179.342625,27.038375 L179.342625,36.957375 C179.342625,37.351125 179.5605,37.569875 179.95425,37.569875 L182.75075,37.569875 C183.143625,37.569875 183.362375,37.351125 183.362375,36.957375 L183.362375,27.038375 C183.362375,24.241875 185.110625,23.54275 187.033,23.54275 C187.732125,23.54275 188.43125,23.63025 189.174125,23.7615 C189.524125,23.89275 189.8295,23.63025 189.87325,23.281125 L190.309875,20.8775 Z M211.022875,28.830375 C211.022875,22.756125 207.046,19.56675 201.933375,19.56675 C196.821625,19.56675 192.84475,22.756125 192.84475,28.830375 C192.84475,34.90375 196.821625,38.094 201.933375,38.094 C205.079875,38.094 207.657625,36.957375 209.274625,34.729625 C209.493375,34.423375 209.362125,34.073375 209.055875,33.943 L206.478125,32.806375 C206.129,32.631375 205.779,32.762625 205.47275,32.981375 C204.46825,33.985875 203.112875,34.248375 201.933375,34.248375 C199.836,34.248375 197.2145,33.331375 196.8645,29.57325 L210.3675,29.57325 C210.716625,29.57325 211.022875,29.31075 211.022875,28.961625 L211.022875,28.830375 Z M197.17075,26.6455 C197.957375,24.110625 200.14225,23.4115 201.933375,23.4115 C203.725375,23.4115 205.91025,24.110625 206.696875,26.6455 L197.17075,26.6455 L197.17075,26.6455 Z" id="Fill-2"></path>
        </g>
    </g>
</svg>