<?xml version="1.0" encoding="UTF-8"?>
<svg width="55px" height="64px" viewBox="0 0 55 64" version="1.1" xmlns="http://www.w3.org/2000/svg" xmlns:xlink="http://www.w3.org/1999/xlink">
    <!-- Generator: Sketch 56.2 (81672) - https://sketch.com -->
    <title>payhere-white</title>
    <desc>Created with Sketch.</desc>
    <g id="Page-1" stroke="none" stroke-width="1" fill="none" fill-rule="evenodd">
        <g id="payhere-white" fill="#FFFFFF" fill-rule="nonzero">
            <path d="M2.283,0.03 L18.675,0.03 C19.275,0.03 19.787,0.373 20.017,0.927 C20.246,1.481 20.126,2.085 19.702,2.509 L3.31,18.901 C2.886,19.325 2.282,19.445 1.727,19.216 C1.173,18.986 0.831,18.474 0.831,17.874 L0.831,1.482 C0.831,0.683 1.483,0.03 2.283,0.03 Z M28.117,0.029 C31.352,0.023 34.094,-0.009 37.358,0.921 C47.193,3.724 54.449,12.815 54.449,23.518 C54.449,36.437 43.879,47.006 30.961,47.006 L14.098,47.006 L24.319,50.356 L24.319,62.52 C24.319,63.32 23.666,63.972 22.867,63.972 L2.283,63.972 C1.483,63.972 0.831,63.32 0.831,62.52 L0.831,27.319 C0.831,26.919 0.974,26.575 1.256,26.292 L27.094,0.455 C27.375,0.173 27.718,0.03 28.117,0.029 L28.117,0.029 Z" id="Fill-1"></path>
        </g>
    </g>
</svg>